<svg width="17" height="12" viewBox="0 0 17 12" fill="none" xmlns="http://www.w3.org/2000/svg">
<path d="M10.9105 8.75722C11.4022 8.2967 11.7398 7.7058 11.8802 7.06002C12.0206 6.41425 11.9573 5.74293 11.6986 5.13186C11.4398 4.52078 10.9973 3.9977 10.4276 3.62945C9.8578 3.26119 9.1867 3.0645 8.5 3.0645C7.81331 3.0645 7.1422 3.26119 6.57245 3.62945C6.0027 3.9977 5.56017 4.52078 5.30141 5.13186C5.04265 5.74293 4.97942 6.41425 5.11979 7.06002C5.26016 7.7058 5.59776 8.2967 6.08945 8.75722C5.16303 9.23701 4.41725 9.98472 3.95781 10.8944C3.86447 11.0771 3.85051 11.288 3.91901 11.4806C3.9875 11.6732 4.13284 11.8318 4.32305 11.9215C4.51326 12.0112 4.73276 12.0246 4.93326 11.9588C5.13376 11.893 5.29885 11.7534 5.39219 11.5706C5.67495 11.0098 6.11644 10.5367 6.66609 10.2058C7.21573 9.87479 7.85131 9.69925 8.5 9.69925C9.14869 9.69925 9.78427 9.87479 10.3339 10.2058C10.8836 10.5367 11.3251 11.0098 11.6078 11.5706C11.6737 11.6992 11.7759 11.8075 11.9027 11.883C12.0295 11.9586 12.1758 11.9985 12.325 11.9981C12.4445 11.9971 12.5624 11.971 12.6703 11.9215C12.7653 11.8779 12.8503 11.8166 12.9204 11.7412C12.9906 11.6659 13.0445 11.5779 13.0791 11.4824C13.1137 11.3869 13.1282 11.2858 13.1219 11.1849C13.1155 11.0839 13.0885 10.9852 13.0422 10.8944C12.5827 9.98472 11.837 9.23701 10.9105 8.75722ZM6.64063 6.38401C6.64063 6.03072 6.74968 5.68536 6.95399 5.3916C7.1583 5.09785 7.44869 4.8689 7.78845 4.7337C8.12821 4.5985 8.50206 4.56312 8.86275 4.63205C9.22343 4.70097 9.55474 4.8711 9.81478 5.12092C10.0748 5.37073 10.2519 5.68902 10.3236 6.03553C10.3954 6.38203 10.3586 6.74119 10.2178 7.0676C10.0771 7.394 9.83879 7.67298 9.53301 7.86926C9.22724 8.06554 8.86775 8.1703 8.5 8.1703C8.0074 8.16862 7.53548 7.97988 7.18716 7.64525C6.83884 7.31062 6.64238 6.85725 6.64063 6.38401ZM16.6812 6.99645C16.5122 7.11828 16.2997 7.17058 16.0904 7.14187C15.8812 7.11316 15.6924 7.00577 15.5656 6.84334C15.316 6.52041 15.0019 6.24856 14.6415 6.04372C14.2812 5.83887 13.882 5.70514 13.4672 5.65036C13.3098 5.62772 13.1631 5.56033 13.0459 5.45686C12.9287 5.35339 12.8465 5.21859 12.8098 5.06981C12.7958 5.04113 12.7846 5.01122 12.7766 4.9805C12.7497 4.8833 12.7431 4.78194 12.7573 4.68229C12.7715 4.58265 12.8062 4.48671 12.8594 4.40005C12.9125 4.31339 12.983 4.23774 13.0668 4.17749C13.1507 4.11724 13.2461 4.07359 13.3477 4.04908C13.5634 3.99478 13.7614 3.88918 13.9235 3.742C14.0855 3.59482 14.2064 3.41081 14.2749 3.20694C14.3434 3.00307 14.3574 2.7859 14.3156 2.57546C14.2738 2.36503 14.1775 2.1681 14.0355 2.00284C13.8936 1.83758 13.7107 1.70931 13.5036 1.62987C13.2965 1.55042 13.0719 1.52235 12.8505 1.54825C12.6291 1.57415 12.4181 1.65318 12.2369 1.77806C12.0557 1.90294 11.9102 2.06964 11.8137 2.26279C11.7741 2.36116 11.7138 2.45062 11.6366 2.52556C11.5594 2.60049 11.4669 2.6593 11.3649 2.69827C11.2629 2.73725 11.1536 2.75557 11.0439 2.75207C10.9342 2.74857 10.8264 2.72334 10.7273 2.67795C10.6283 2.63256 10.54 2.56799 10.4681 2.4883C10.3962 2.40861 10.3423 2.31551 10.3096 2.21484C10.2769 2.11416 10.2662 2.00809 10.2782 1.90327C10.2902 1.79845 10.3246 1.69714 10.3793 1.60569C10.5571 1.24492 10.813 0.924743 11.1298 0.666511C11.4467 0.408279 11.8172 0.217937 12.2167 0.108186C12.6162 -0.00156549 13.0354 -0.0282011 13.4465 0.0300564C13.8576 0.088314 14.2509 0.230125 14.6004 0.446025C14.9499 0.661926 15.2474 0.94695 15.4732 1.28208C15.6989 1.61721 15.8476 1.99473 15.9094 2.38946C15.9712 2.78419 15.9447 3.18705 15.8316 3.57114C15.7185 3.95524 15.5214 4.31174 15.2535 4.61686C15.8776 4.93337 16.42 5.38027 16.8406 5.92468C16.9034 6.00511 16.9491 6.09663 16.9751 6.19402C17.001 6.29141 17.0068 6.39275 16.992 6.49228C16.9772 6.5918 16.9421 6.68755 16.8888 6.77406C16.8355 6.86056 16.765 6.93613 16.6812 6.99645ZM3.53281 5.65036C3.11803 5.70514 2.71879 5.83887 2.35847 6.04372C1.99815 6.24856 1.68398 6.52041 1.43438 6.84334C1.35945 6.9377 1.26306 7.01435 1.15256 7.06742C1.04207 7.1205 0.920408 7.14859 0.796878 7.14956C0.624612 7.14866 0.45713 7.09503 0.318753 6.99645C0.149678 6.87463 0.0379009 6.69327 0.00801225 6.49228C-0.0218764 6.29128 0.0325716 6.08711 0.159378 5.92468C0.580023 5.38027 1.12236 4.93337 1.74649 4.61686C1.47859 4.31174 1.28151 3.95524 1.16841 3.57114C1.0553 3.18705 1.02877 2.78419 1.09058 2.38946C1.15238 1.99473 1.30111 1.61721 1.52684 1.28208C1.75257 0.94695 2.0501 0.661926 2.39958 0.446025C2.74906 0.230125 3.14245 0.088314 3.5535 0.0300564C3.96456 -0.0282011 4.38382 -0.00156549 4.7833 0.108186C5.18279 0.217937 5.55332 0.408279 5.87017 0.666511C6.18701 0.924743 6.44288 1.24492 6.6207 1.60569C6.67537 1.69714 6.70978 1.79845 6.72178 1.90327C6.73377 2.00809 6.7231 2.11416 6.69042 2.21484C6.65774 2.31551 6.60377 2.40861 6.53188 2.4883C6.46 2.56799 6.37175 2.63256 6.27267 2.67795C6.17359 2.72334 6.06581 2.74857 5.95611 2.75207C5.8464 2.75557 5.73712 2.73725 5.63513 2.69827C5.53313 2.6593 5.44062 2.60049 5.36339 2.52556C5.28616 2.45062 5.22588 2.36116 5.18633 2.26279C5.08985 2.06964 4.94429 1.90294 4.76309 1.77806C4.58189 1.65318 4.37087 1.57415 4.1495 1.54825C3.92813 1.52235 3.70354 1.55042 3.49643 1.62987C3.28933 1.70931 3.10638 1.83758 2.96446 2.00284C2.82255 2.1681 2.72623 2.36503 2.6844 2.57546C2.64256 2.7859 2.65656 3.00307 2.72509 3.20694C2.79363 3.41081 2.9145 3.59482 3.07655 3.742C3.2386 3.88918 3.43662 3.99478 3.65235 4.04908C3.75388 4.07359 3.84933 4.11724 3.93316 4.17749C4.01698 4.23774 4.08751 4.31339 4.14065 4.40005C4.19378 4.48671 4.22846 4.58265 4.24268 4.68229C4.25689 4.78194 4.25035 4.8833 4.22344 4.9805C4.21536 5.01122 4.20424 5.04113 4.19024 5.06981C4.15353 5.21859 4.07129 5.35339 3.95412 5.45686C3.83695 5.56033 3.69021 5.62772 3.53281 5.65036Z" fill="#3E4377"/>
</svg>
