<svg width="14" height="14" viewBox="0 0 14 14" fill="none" xmlns="http://www.w3.org/2000/svg">
<path d="M9.33335 9.33333H12.3334C12.5102 9.33333 12.6797 9.26309 12.8048 9.13807C12.9298 9.01305 13 8.84348 13 8.66667V1.66667C13 1.48986 12.9298 1.32029 12.8048 1.19526C12.6797 1.07024 12.5102 1 12.3334 1H5.33335C5.15654 1 4.98697 1.07024 4.86195 1.19526C4.73693 1.32029 4.66669 1.48986 4.66669 1.66667V4.66667" stroke="#3E4377" stroke-width="1.8" stroke-linecap="round" stroke-linejoin="round"/>
<path d="M4.66667 4.66675H1.66667C1.48986 4.66675 1.32029 4.73699 1.19526 4.86201C1.07024 4.98703 1 5.1566 1 5.33341V12.3334C1 12.5102 1.07024 12.6798 1.19526 12.8048C1.32029 12.9298 1.48986 13.0001 1.66667 13.0001H8.66667C8.84348 13.0001 9.01305 12.9298 9.13807 12.8048C9.26309 12.6798 9.33333 12.5102 9.33333 12.3334V9.33341" stroke="#3E4377" stroke-width="1.8" stroke-linecap="round" stroke-linejoin="round"/>
<path d="M8.66669 4.66675H5.33335C4.96516 4.66675 4.66669 4.96522 4.66669 5.33341V8.66675C4.66669 9.03494 4.96516 9.33342 5.33335 9.33342H8.66669C9.03488 9.33342 9.33335 9.03494 9.33335 8.66675V5.33341C9.33335 4.96522 9.03488 4.66675 8.66669 4.66675Z" stroke="#3E4377" stroke-width="1.8" stroke-linecap="round" stroke-linejoin="round"/>
</svg>
